<svg id="visual" viewBox="0 0 900 600" width="900" height="600" xmlns="http://www.w3.org/2000/svg" xmlns:xlink="http://www.w3.org/1999/xlink" version="1.1"><rect x="0" y="0" width="900" height="600" fill="#ffffff"></rect><path d="M0 225L21.5 220.8C43 216.7 86 208.3 128.8 195.8C171.7 183.3 214.3 166.7 257.2 172.5C300 178.3 343 206.7 385.8 210.8C428.7 215 471.3 195 514.2 186C557 177 600 179 642.8 190.3C685.7 201.7 728.3 222.3 771.2 218.5C814 214.7 857 186.3 878.5 172.2L900 158L900 0L878.5 0C857 0 814 0 771.2 0C728.3 0 685.7 0 642.8 0C600 0 557 0 514.2 0C471.3 0 428.7 0 385.8 0C343 0 300 0 257.2 0C214.3 0 171.7 0 128.8 0C86 0 43 0 21.5 0L0 0Z" fill="#3be63b"></path><path d="M0 132L21.5 141.7C43 151.3 86 170.7 128.8 177.2C171.7 183.7 214.3 177.3 257.2 174.7C300 172 343 173 385.8 177.3C428.7 181.7 471.3 189.3 514.2 184.2C557 179 600 161 642.8 149.7C685.7 138.3 728.3 133.7 771.2 133.7C814 133.7 857 138.3 878.5 140.7L900 143L900 0L878.5 0C857 0 814 0 771.2 0C728.3 0 685.7 0 642.8 0C600 0 557 0 514.2 0C471.3 0 428.7 0 385.8 0C343 0 300 0 257.2 0C214.3 0 171.7 0 128.8 0C86 0 43 0 21.5 0L0 0Z" fill="#2ebe2e"></path><path d="M0 123L21.5 122.8C43 122.7 86 122.3 128.8 124.3C171.7 126.3 214.3 130.7 257.2 135.8C300 141 343 147 385.8 146.5C428.7 146 471.3 139 514.2 129.5C557 120 600 108 642.8 100.5C685.7 93 728.3 90 771.2 99.7C814 109.3 857 131.7 878.5 142.8L900 154L900 0L878.5 0C857 0 814 0 771.2 0C728.3 0 685.7 0 642.8 0C600 0 557 0 514.2 0C471.3 0 428.7 0 385.8 0C343 0 300 0 257.2 0C214.3 0 171.7 0 128.8 0C86 0 43 0 21.5 0L0 0Z" fill="#229722"></path><path d="M0 68L21.5 70.2C43 72.3 86 76.7 128.8 79.2C171.7 81.7 214.3 82.3 257.2 81.3C300 80.3 343 77.7 385.8 82.3C428.7 87 471.3 99 514.2 100.8C557 102.7 600 94.3 642.8 89.5C685.7 84.7 728.3 83.3 771.2 78.8C814 74.3 857 66.7 878.5 62.8L900 59L900 0L878.5 0C857 0 814 0 771.2 0C728.3 0 685.7 0 642.8 0C600 0 557 0 514.2 0C471.3 0 428.7 0 385.8 0C343 0 300 0 257.2 0C214.3 0 171.7 0 128.8 0C86 0 43 0 21.5 0L0 0Z" fill="#167216"></path><path d="M0 29L21.5 34.3C43 39.7 86 50.3 128.8 51.8C171.7 53.3 214.3 45.7 257.2 43.5C300 41.3 343 44.7 385.8 45.3C428.7 46 471.3 44 514.2 44.7C557 45.3 600 48.7 642.8 45.8C685.7 43 728.3 34 771.2 37.3C814 40.7 857 56.3 878.5 64.2L900 72L900 0L878.5 0C857 0 814 0 771.2 0C728.3 0 685.7 0 642.8 0C600 0 557 0 514.2 0C471.3 0 428.7 0 385.8 0C343 0 300 0 257.2 0C214.3 0 171.7 0 128.8 0C86 0 43 0 21.5 0L0 0Z" fill="#0b4f0b"></path></svg>