<svg id="visual" viewBox="0 0 900 600" width="900" height="600" xmlns="http://www.w3.org/2000/svg" xmlns:xlink="http://www.w3.org/1999/xlink" version="1.1"><path d="M0 514L21.5 506C43 498 86 482 128.8 481.8C171.7 481.7 214.3 497.3 257.2 502C300 506.7 343 500.3 385.8 491.7C428.7 483 471.3 472 514.2 474.7C557 477.3 600 493.7 642.8 493.8C685.7 494 728.3 478 771.2 480.2C814 482.3 857 502.7 878.5 512.8L900 523L900 601L878.5 601C857 601 814 601 771.2 601C728.3 601 685.7 601 642.8 601C600 601 557 601 514.2 601C471.3 601 428.7 601 385.8 601C343 601 300 601 257.2 601C214.3 601 171.7 601 128.8 601C86 601 43 601 21.5 601L0 601Z" fill="#000000" stroke-linecap="round" stroke-linejoin="miter"></path></svg>