<svg id="visual" viewBox="0 0 900 600" width="900" height="600" xmlns="http://www.w3.org/2000/svg" xmlns:xlink="http://www.w3.org/1999/xlink" version="1.1"><rect x="0" y="0" width="900" height="600" fill="#FFFFFF"></rect><defs><linearGradient id="grad1_0" x1="33.3%" y1="0%" x2="100%" y2="100%"><stop offset="20%" stop-color="#000000" stop-opacity="1"></stop><stop offset="80%" stop-color="#000000" stop-opacity="1"></stop></linearGradient></defs><defs><linearGradient id="grad1_1" x1="33.3%" y1="0%" x2="100%" y2="100%"><stop offset="20%" stop-color="#000000" stop-opacity="1"></stop><stop offset="80%" stop-color="#303030" stop-opacity="1"></stop></linearGradient></defs><defs><linearGradient id="grad1_2" x1="33.3%" y1="0%" x2="100%" y2="100%"><stop offset="20%" stop-color="#5e5e5e" stop-opacity="1"></stop><stop offset="80%" stop-color="#303030" stop-opacity="1"></stop></linearGradient></defs><defs><linearGradient id="grad1_3" x1="33.3%" y1="0%" x2="100%" y2="100%"><stop offset="20%" stop-color="#5e5e5e" stop-opacity="1"></stop><stop offset="80%" stop-color="#919191" stop-opacity="1"></stop></linearGradient></defs><defs><linearGradient id="grad1_4" x1="33.3%" y1="0%" x2="100%" y2="100%"><stop offset="20%" stop-color="#c6c6c6" stop-opacity="1"></stop><stop offset="80%" stop-color="#919191" stop-opacity="1"></stop></linearGradient></defs><defs><linearGradient id="grad1_5" x1="33.3%" y1="0%" x2="100%" y2="100%"><stop offset="20%" stop-color="#c6c6c6" stop-opacity="1"></stop><stop offset="80%" stop-color="#ffffff" stop-opacity="1"></stop></linearGradient></defs><defs><linearGradient id="grad2_0" x1="0%" y1="0%" x2="66.7%" y2="100%"><stop offset="20%" stop-color="#000000" stop-opacity="1"></stop><stop offset="80%" stop-color="#000000" stop-opacity="1"></stop></linearGradient></defs><defs><linearGradient id="grad2_1" x1="0%" y1="0%" x2="66.7%" y2="100%"><stop offset="20%" stop-color="#303030" stop-opacity="1"></stop><stop offset="80%" stop-color="#000000" stop-opacity="1"></stop></linearGradient></defs><defs><linearGradient id="grad2_2" x1="0%" y1="0%" x2="66.7%" y2="100%"><stop offset="20%" stop-color="#303030" stop-opacity="1"></stop><stop offset="80%" stop-color="#5e5e5e" stop-opacity="1"></stop></linearGradient></defs><defs><linearGradient id="grad2_3" x1="0%" y1="0%" x2="66.7%" y2="100%"><stop offset="20%" stop-color="#919191" stop-opacity="1"></stop><stop offset="80%" stop-color="#5e5e5e" stop-opacity="1"></stop></linearGradient></defs><defs><linearGradient id="grad2_4" x1="0%" y1="0%" x2="66.7%" y2="100%"><stop offset="20%" stop-color="#919191" stop-opacity="1"></stop><stop offset="80%" stop-color="#c6c6c6" stop-opacity="1"></stop></linearGradient></defs><defs><linearGradient id="grad2_5" x1="0%" y1="0%" x2="66.7%" y2="100%"><stop offset="20%" stop-color="#ffffff" stop-opacity="1"></stop><stop offset="80%" stop-color="#c6c6c6" stop-opacity="1"></stop></linearGradient></defs><g transform="translate(900, 0)"><path d="M0 241C-32.5 238 -64.9 234.9 -93.8 226.4C-122.6 217.8 -147.7 203.6 -188.1 188.1C-228.5 172.6 -284.1 155.8 -299.8 124.2C-315.5 92.6 -291.2 46.3 -267 0L0 0Z" fill="#e2e2e2"></path><path d="M0 200.8C-27.1 198.3 -54.1 195.8 -78.1 188.6C-102.1 181.5 -123.1 169.7 -156.7 156.7C-190.4 143.8 -236.8 129.8 -249.8 103.5C-262.9 77.2 -242.7 38.6 -222.5 0L0 0Z" fill="#ababab"></path><path d="M0 160.7C-21.6 158.6 -43.3 156.6 -62.5 150.9C-81.7 145.2 -98.5 135.7 -125.4 125.4C-152.3 115.1 -189.4 103.8 -199.9 82.8C-210.3 61.7 -194.2 30.9 -178 0L0 0Z" fill="#777777"></path><path d="M0 120.5C-16.2 119 -32.5 117.5 -46.9 113.2C-61.3 108.9 -73.9 101.8 -94 94C-114.2 86.3 -142.1 77.9 -149.9 62.1C-157.7 46.3 -145.6 23.2 -133.5 0L0 0Z" fill="#474747"></path><path d="M0 80.3C-10.8 79.3 -21.6 78.3 -31.3 75.5C-40.9 72.6 -49.2 67.9 -62.7 62.7C-76.2 57.5 -94.7 51.9 -99.9 41.4C-105.2 30.9 -97.1 15.4 -89 0L0 0Z" fill="#1b1b1b"></path><path d="M0 40.2C-5.4 39.7 -10.8 39.2 -15.6 37.7C-20.4 36.3 -24.6 33.9 -31.3 31.3C-38.1 28.8 -47.4 26 -50 20.7C-52.6 15.4 -48.5 7.7 -44.5 0L0 0Z" fill="#000000"></path></g><g transform="translate(0, 600)"><path d="M0 -320C21.3 -270.1 42.6 -220.3 88.8 -214.3C134.9 -208.4 205.9 -246.4 229.5 -229.5C253 -212.5 229.1 -140.8 225.4 -93.4C221.8 -46 238.4 -23 255 0L0 0Z" fill="#e2e2e2"></path><path d="M0 -266.7C17.8 -225.1 35.5 -183.6 74 -178.6C112.4 -173.7 171.6 -205.3 191.2 -191.2C210.8 -177.1 190.9 -117.3 187.9 -77.8C184.8 -38.3 198.7 -19.2 212.5 0L0 0Z" fill="#ababab"></path><path d="M0 -213.3C14.2 -180.1 28.4 -146.9 59.2 -142.9C90 -138.9 137.3 -164.2 153 -153C168.7 -141.7 152.7 -93.8 150.3 -62.2C147.9 -30.7 158.9 -15.3 170 0L0 0Z" fill="#777777"></path><path d="M0 -160C10.7 -135.1 21.3 -110.1 44.4 -107.2C67.5 -104.2 103 -123.2 114.7 -114.7C126.5 -106.3 114.5 -70.4 112.7 -46.7C110.9 -23 119.2 -11.5 127.5 0L0 0Z" fill="#474747"></path><path d="M0 -106.7C7.1 -90 14.2 -73.4 29.6 -71.4C45 -69.5 68.6 -82.1 76.5 -76.5C84.3 -70.8 76.4 -46.9 75.1 -31.1C73.9 -15.3 79.5 -7.7 85 0L0 0Z" fill="#1b1b1b"></path><path d="M0 -53.3C3.6 -45 7.1 -36.7 14.8 -35.7C22.5 -34.7 34.3 -41.1 38.2 -38.2C42.2 -35.4 38.2 -23.5 37.6 -15.6C37 -7.7 39.7 -3.8 42.5 0L0 0Z" fill="#000000"></path></g></svg>