<svg id="visual" viewBox="0 0 900 675" width="900" height="675" xmlns="http://www.w3.org/2000/svg" xmlns:xlink="http://www.w3.org/1999/xlink" version="1.1"><path d="M0 431L129 468L257 452L386 424L514 420L643 388L771 464L900 388L900 676L771 676L643 676L514 676L386 676L257 676L129 676L0 676Z" fill="#00945e"></path><path d="M0 456L129 457L257 471L386 442L514 440L643 478L771 479L900 499L900 676L771 676L643 676L514 676L386 676L257 676L129 676L0 676Z" fill="#5daf84"></path><path d="M0 506L129 531L257 500L386 520L514 551L643 510L771 544L900 535L900 676L771 676L643 676L514 676L386 676L257 676L129 676L0 676Z" fill="#95caab"></path><path d="M0 596L129 552L257 577L386 592L514 550L643 590L771 572L900 555L900 676L771 676L643 676L514 676L386 676L257 676L129 676L0 676Z" fill="#cae5d4"></path><path d="M0 614L129 595L257 601L386 600L514 590L643 616L771 605L900 607L900 676L771 676L643 676L514 676L386 676L257 676L129 676L0 676Z" fill="#ffffff"></path></svg>