<svg id="visual" viewBox="0 0 900 600" width="900" height="600" xmlns="http://www.w3.org/2000/svg" xmlns:xlink="http://www.w3.org/1999/xlink" version="1.1"><path d="M0 67L8.8 65C17.7 63 35.3 59 53 56C70.7 53 88.3 51 106 53C123.7 55 141.3 61 159 61C176.7 61 194.3 55 212 53C229.7 51 247.3 53 265 56C282.7 59 300.3 63 318 63C335.7 63 353.3 59 371 56C388.7 53 406.3 51 423.8 53C441.3 55 458.7 61 476.2 65C493.7 69 511.3 71 529 65C546.7 59 564.3 45 582 38C599.7 31 617.3 31 635 38C652.7 45 670.3 59 688 60C705.7 61 723.3 49 741 50C758.7 51 776.3 65 794 65C811.7 65 829.3 51 847 49C864.7 47 882.3 57 891.2 62L900 67L900 0L891.2 0C882.3 0 864.7 0 847 0C829.3 0 811.7 0 794 0C776.3 0 758.7 0 741 0C723.3 0 705.7 0 688 0C670.3 0 652.7 0 635 0C617.3 0 599.7 0 582 0C564.3 0 546.7 0 529 0C511.3 0 493.7 0 476.2 0C458.7 0 441.3 0 423.8 0C406.3 0 388.7 0 371 0C353.3 0 335.7 0 318 0C300.3 0 282.7 0 265 0C247.3 0 229.7 0 212 0C194.3 0 176.7 0 159 0C141.3 0 123.7 0 106 0C88.3 0 70.7 0 53 0C35.3 0 17.7 0 8.8 0L0 0Z" fill="#ffffff"></path><path d="M0 157L8.8 169C17.7 181 35.3 205 53 199C70.7 193 88.3 157 106 153C123.7 149 141.3 177 159 191C176.7 205 194.3 205 212 196C229.7 187 247.3 169 265 173C282.7 177 300.3 203 318 207C335.7 211 353.3 193 371 177C388.7 161 406.3 147 423.8 152C441.3 157 458.7 181 476.2 197C493.7 213 511.3 221 529 202C546.7 183 564.3 137 582 118C599.7 99 617.3 107 635 122C652.7 137 670.3 159 688 168C705.7 177 723.3 173 741 166C758.7 159 776.3 149 794 151C811.7 153 829.3 167 847 175C864.7 183 882.3 185 891.2 186L900 187L900 65L891.2 60C882.3 55 864.7 45 847 47C829.3 49 811.7 63 794 63C776.3 63 758.7 49 741 48C723.3 47 705.7 59 688 58C670.3 57 652.7 43 635 36C617.3 29 599.7 29 582 36C564.3 43 546.7 57 529 63C511.3 69 493.7 67 476.2 63C458.7 59 441.3 53 423.8 51C406.3 49 388.7 51 371 54C353.3 57 335.7 61 318 61C300.3 61 282.7 57 265 54C247.3 51 229.7 49 212 51C194.3 53 176.7 59 159 59C141.3 59 123.7 53 106 51C88.3 49 70.7 51 53 54C35.3 57 17.7 61 8.8 63L0 65Z" fill="#ffffff"></path><path d="M0 211L8.8 222C17.7 233 35.3 255 53 247C70.7 239 88.3 201 106 193C123.7 185 141.3 207 159 219C176.7 231 194.3 233 212 225C229.7 217 247.3 199 265 209C282.7 219 300.3 257 318 260C335.7 263 353.3 231 371 210C388.7 189 406.3 179 423.8 189C441.3 199 458.7 229 476.2 244C493.7 259 511.3 259 529 235C546.7 211 564.3 163 582 149C599.7 135 617.3 155 635 175C652.7 195 670.3 215 688 219C705.7 223 723.3 211 741 206C758.7 201 776.3 203 794 210C811.7 217 829.3 229 847 230C864.7 231 882.3 221 891.2 216L900 211L900 185L891.2 184C882.3 183 864.7 181 847 173C829.3 165 811.7 151 794 149C776.3 147 758.7 157 741 164C723.3 171 705.7 175 688 166C670.3 157 652.7 135 635 120C617.3 105 599.7 97 582 116C564.3 135 546.7 181 529 200C511.3 219 493.7 211 476.2 195C458.7 179 441.3 155 423.8 150C406.3 145 388.7 159 371 175C353.3 191 335.7 209 318 205C300.3 201 282.7 175 265 171C247.3 167 229.7 185 212 194C194.3 203 176.7 203 159 189C141.3 175 123.7 147 106 151C88.3 155 70.7 191 53 197C35.3 203 17.7 179 8.8 167L0 155Z" fill="#fbfbfb"></path><path d="M0 391L8.8 395C17.7 399 35.3 407 53 395C70.7 383 88.3 351 106 332C123.7 313 141.3 307 159 307C176.7 307 194.3 313 212 322C229.7 331 247.3 343 265 351C282.7 359 300.3 363 318 357C335.7 351 353.3 335 371 330C388.7 325 406.3 331 423.8 329C441.3 327 458.7 317 476.2 320C493.7 323 511.3 339 529 333C546.7 327 564.3 299 582 294C599.7 289 617.3 307 635 324C652.7 341 670.3 357 688 360C705.7 363 723.3 353 741 348C758.7 343 776.3 343 794 350C811.7 357 829.3 371 847 373C864.7 375 882.3 365 891.2 360L900 355L900 209L891.2 214C882.3 219 864.7 229 847 228C829.3 227 811.7 215 794 208C776.3 201 758.7 199 741 204C723.3 209 705.7 221 688 217C670.3 213 652.7 193 635 173C617.3 153 599.7 133 582 147C564.3 161 546.7 209 529 233C511.3 257 493.7 257 476.2 242C458.7 227 441.3 197 423.8 187C406.3 177 388.7 187 371 208C353.3 229 335.7 261 318 258C300.3 255 282.7 217 265 207C247.3 197 229.7 215 212 223C194.3 231 176.7 229 159 217C141.3 205 123.7 183 106 191C88.3 199 70.7 237 53 245C35.3 253 17.7 231 8.8 220L0 209Z" fill="#f0f0f0"></path><path d="M0 439L8.8 442C17.7 445 35.3 451 53 452C70.7 453 88.3 449 106 440C123.7 431 141.3 417 159 415C176.7 413 194.3 423 212 423C229.7 423 247.3 413 265 422C282.7 431 300.3 459 318 458C335.7 457 353.3 427 371 422C388.7 417 406.3 437 423.8 438C441.3 439 458.7 421 476.2 420C493.7 419 511.3 435 529 431C546.7 427 564.3 403 582 397C599.7 391 617.3 403 635 409C652.7 415 670.3 415 688 412C705.7 409 723.3 403 741 408C758.7 413 776.3 429 794 439C811.7 449 829.3 453 847 455C864.7 457 882.3 457 891.2 457L900 457L900 353L891.2 358C882.3 363 864.7 373 847 371C829.3 369 811.7 355 794 348C776.3 341 758.7 341 741 346C723.3 351 705.7 361 688 358C670.3 355 652.7 339 635 322C617.3 305 599.7 287 582 292C564.3 297 546.7 325 529 331C511.3 337 493.7 321 476.2 318C458.7 315 441.3 325 423.8 327C406.3 329 388.7 323 371 328C353.3 333 335.7 349 318 355C300.3 361 282.7 357 265 349C247.3 341 229.7 329 212 320C194.3 311 176.7 305 159 305C141.3 305 123.7 311 106 330C88.3 349 70.7 381 53 393C35.3 405 17.7 397 8.8 393L0 389Z" fill="#eeeeee"></path><path d="M0 499L8.8 498C17.7 497 35.3 495 53 490C70.7 485 88.3 477 106 471C123.7 465 141.3 461 159 458C176.7 455 194.3 453 212 452C229.7 451 247.3 451 265 461C282.7 471 300.3 491 318 490C335.7 489 353.3 467 371 463C388.7 459 406.3 473 423.8 474C441.3 475 458.7 463 476.2 465C493.7 467 511.3 483 529 481C546.7 479 564.3 459 582 451C599.7 443 617.3 447 635 447C652.7 447 670.3 443 688 440C705.7 437 723.3 435 741 440C758.7 445 776.3 457 794 466C811.7 475 829.3 481 847 488C864.7 495 882.3 503 891.2 507L900 511L900 455L891.2 455C882.3 455 864.7 455 847 453C829.3 451 811.7 447 794 437C776.3 427 758.7 411 741 406C723.3 401 705.7 407 688 410C670.3 413 652.7 413 635 407C617.3 401 599.7 389 582 395C564.3 401 546.7 425 529 429C511.3 433 493.7 417 476.2 418C458.7 419 441.3 437 423.8 436C406.3 435 388.7 415 371 420C353.3 425 335.7 455 318 456C300.3 457 282.7 429 265 420C247.3 411 229.7 421 212 421C194.3 421 176.7 411 159 413C141.3 415 123.7 429 106 438C88.3 447 70.7 451 53 450C35.3 449 17.7 443 8.8 440L0 437Z" fill="#f0f0f0"></path><path d="M0 529L8.8 532C17.7 535 35.3 541 53 544C70.7 547 88.3 547 106 545C123.7 543 141.3 539 159 538C176.7 537 194.3 539 212 536C229.7 533 247.3 525 265 526C282.7 527 300.3 537 318 537C335.7 537 353.3 527 371 524C388.7 521 406.3 525 423.8 524C441.3 523 458.7 517 476.2 520C493.7 523 511.3 535 529 539C546.7 543 564.3 539 582 536C599.7 533 617.3 531 635 529C652.7 527 670.3 525 688 521C705.7 517 723.3 511 741 515C758.7 519 776.3 533 794 536C811.7 539 829.3 531 847 531C864.7 531 882.3 539 891.2 543L900 547L900 509L891.2 505C882.3 501 864.7 493 847 486C829.3 479 811.7 473 794 464C776.3 455 758.7 443 741 438C723.3 433 705.7 435 688 438C670.3 441 652.7 445 635 445C617.3 445 599.7 441 582 449C564.3 457 546.7 477 529 479C511.3 481 493.7 465 476.2 463C458.7 461 441.3 473 423.8 472C406.3 471 388.7 457 371 461C353.3 465 335.7 487 318 488C300.3 489 282.7 469 265 459C247.3 449 229.7 449 212 450C194.3 451 176.7 453 159 456C141.3 459 123.7 463 106 469C88.3 475 70.7 483 53 488C35.3 493 17.7 495 8.8 496L0 497Z" fill="#fbfbfb"></path><path d="M0 583L8.8 581C17.7 579 35.3 575 53 572C70.7 569 88.3 567 106 568C123.7 569 141.3 573 159 576C176.7 579 194.3 581 212 580C229.7 579 247.3 575 265 574C282.7 573 300.3 575 318 575C335.7 575 353.3 573 371 569C388.7 565 406.3 559 423.8 558C441.3 557 458.7 561 476.2 564C493.7 567 511.3 569 529 570C546.7 571 564.3 571 582 569C599.7 567 617.3 563 635 560C652.7 557 670.3 555 688 554C705.7 553 723.3 553 741 556C758.7 559 776.3 565 794 566C811.7 567 829.3 563 847 562C864.7 561 882.3 563 891.2 564L900 565L900 545L891.2 541C882.3 537 864.7 529 847 529C829.3 529 811.7 537 794 534C776.3 531 758.7 517 741 513C723.3 509 705.7 515 688 519C670.3 523 652.7 525 635 527C617.3 529 599.7 531 582 534C564.3 537 546.7 541 529 537C511.3 533 493.7 521 476.2 518C458.7 515 441.3 521 423.8 522C406.3 523 388.7 519 371 522C353.3 525 335.7 535 318 535C300.3 535 282.7 525 265 524C247.3 523 229.7 531 212 534C194.3 537 176.7 535 159 536C141.3 537 123.7 541 106 543C88.3 545 70.7 545 53 542C35.3 539 17.7 533 8.8 530L0 527Z" fill="#ffffff"></path><path d="M0 601L8.8 601C17.7 601 35.3 601 53 601C70.7 601 88.3 601 106 601C123.7 601 141.3 601 159 601C176.7 601 194.3 601 212 601C229.7 601 247.3 601 265 601C282.7 601 300.3 601 318 601C335.7 601 353.3 601 371 601C388.7 601 406.3 601 423.8 601C441.3 601 458.7 601 476.2 601C493.7 601 511.3 601 529 601C546.7 601 564.3 601 582 601C599.7 601 617.3 601 635 601C652.7 601 670.3 601 688 601C705.7 601 723.3 601 741 601C758.7 601 776.3 601 794 601C811.7 601 829.3 601 847 601C864.7 601 882.3 601 891.2 601L900 601L900 563L891.2 562C882.3 561 864.7 559 847 560C829.3 561 811.7 565 794 564C776.3 563 758.7 557 741 554C723.3 551 705.7 551 688 552C670.3 553 652.7 555 635 558C617.3 561 599.7 565 582 567C564.3 569 546.7 569 529 568C511.3 567 493.7 565 476.2 562C458.7 559 441.3 555 423.8 556C406.3 557 388.7 563 371 567C353.3 571 335.7 573 318 573C300.3 573 282.7 571 265 572C247.3 573 229.7 577 212 578C194.3 579 176.7 577 159 574C141.3 571 123.7 567 106 566C88.3 565 70.7 567 53 570C35.3 573 17.7 577 8.8 579L0 581Z" fill="#ffffff"></path></svg>