<svg id="visual" viewBox="0 0 900 600" width="900" height="600" xmlns="http://www.w3.org/2000/svg" xmlns:xlink="http://www.w3.org/1999/xlink" version="1.1"><path d="M271 0L235 0L235 46L218 46L218 92L234 92L234 138L283 138L283 185L328 185L328 231L401 231L401 277L344 277L344 323L223 323L223 369L311 369L311 415L213 415L213 462L259 462L259 508L287 508L287 554L406 554L406 600L0 600L0 554L0 554L0 508L0 508L0 462L0 462L0 415L0 415L0 369L0 369L0 323L0 323L0 277L0 277L0 231L0 231L0 185L0 185L0 138L0 138L0 92L0 92L0 46L0 46L0 0L0 0Z" fill="#000000"></path><path d="M237 0L379 0L379 46L328 46L328 92L235 92L235 138L175 138L175 185L359 185L359 231L282 231L282 277L362 277L362 323L310 323L310 369L210 369L210 415L215 415L215 462L354 462L354 508L192 508L192 554L295 554L295 600L0 600L0 554L0 554L0 508L0 508L0 462L0 462L0 415L0 415L0 369L0 369L0 323L0 323L0 277L0 277L0 231L0 231L0 185L0 185L0 138L0 138L0 92L0 92L0 46L0 46L0 0L0 0Z" fill="#161718"></path><path d="M181 0L175 0L175 46L234 46L234 92L189 92L189 138L249 138L249 185L153 185L153 231L163 231L163 277L319 277L319 323L292 323L292 369L184 369L184 415L232 415L232 462L156 462L156 508L318 508L318 554L298 554L298 600L0 600L0 554L0 554L0 508L0 508L0 462L0 462L0 415L0 415L0 369L0 369L0 323L0 323L0 277L0 277L0 231L0 231L0 185L0 185L0 138L0 138L0 92L0 92L0 46L0 46L0 0L0 0Z" fill="#262728"></path><path d="M261 0L247 0L247 46L259 46L259 92L229 92L229 138L262 138L262 185L241 185L241 231L148 231L148 277L222 277L222 323L171 323L171 369L187 369L187 415L135 415L135 462L187 462L187 508L130 508L130 554L133 554L133 600L0 600L0 554L0 554L0 508L0 508L0 462L0 462L0 415L0 415L0 369L0 369L0 323L0 323L0 277L0 277L0 231L0 231L0 185L0 185L0 138L0 138L0 92L0 92L0 46L0 46L0 0L0 0Z" fill="#363738"></path><path d="M142 0L165 0L165 46L172 46L172 92L169 92L169 138L182 138L182 185L225 185L225 231L150 231L150 277L203 277L203 323L111 323L111 369L190 369L190 415L182 415L182 462L222 462L222 508L224 508L224 554L211 554L211 600L0 600L0 554L0 554L0 508L0 508L0 462L0 462L0 415L0 415L0 369L0 369L0 323L0 323L0 277L0 277L0 231L0 231L0 185L0 185L0 138L0 138L0 92L0 92L0 46L0 46L0 0L0 0Z" fill="#48494a"></path><path d="M120 0L89 0L89 46L154 46L154 92L91 92L91 138L121 138L121 185L157 185L157 231L149 231L149 277L94 277L94 323L138 323L138 369L158 369L158 415L130 415L130 462L92 462L92 508L151 508L151 554L88 554L88 600L0 600L0 554L0 554L0 508L0 508L0 462L0 462L0 415L0 415L0 369L0 369L0 323L0 323L0 277L0 277L0 231L0 231L0 185L0 185L0 138L0 138L0 92L0 92L0 46L0 46L0 0L0 0Z" fill="#5a5b5c"></path><path d="M86 0L67 0L67 46L102 46L102 92L59 92L59 138L118 138L118 185L112 185L112 231L89 231L89 277L59 277L59 323L76 323L76 369L112 369L112 415L82 415L82 462L125 462L125 508L104 508L104 554L83 554L83 600L0 600L0 554L0 554L0 508L0 508L0 462L0 462L0 415L0 415L0 369L0 369L0 323L0 323L0 277L0 277L0 231L0 231L0 185L0 185L0 138L0 138L0 92L0 92L0 46L0 46L0 0L0 0Z" fill="#6d6e6f"></path><path d="M91 0L74 0L74 46L42 46L42 92L86 92L86 138L61 138L61 185L38 185L38 231L65 231L65 277L58 277L58 323L85 323L85 369L46 369L46 415L65 415L65 462L51 462L51 508L54 508L54 554L67 554L67 600L0 600L0 554L0 554L0 508L0 508L0 462L0 462L0 415L0 415L0 369L0 369L0 323L0 323L0 277L0 277L0 231L0 231L0 185L0 185L0 138L0 138L0 92L0 92L0 46L0 46L0 0L0 0Z" fill="#818283"></path></svg>