<svg id="visual" viewBox="0 0 900 600" width="900" height="600" xmlns="http://www.w3.org/2000/svg" xmlns:xlink="http://www.w3.org/1999/xlink" version="1.1"><path d="M0 403L21.5 401.3C43 399.7 86 396.3 128.8 402.7C171.7 409 214.3 425 257.2 433C300 441 343 441 385.8 427.3C428.7 413.7 471.3 386.3 514.2 380C557 373.7 600 388.3 642.8 399.3C685.7 410.3 728.3 417.7 771.2 412.2C814 406.7 857 388.3 878.5 379.2L900 370L900 601L878.5 601C857 601 814 601 771.2 601C728.3 601 685.7 601 642.8 601C600 601 557 601 514.2 601C471.3 601 428.7 601 385.8 601C343 601 300 601 257.2 601C214.3 601 171.7 601 128.8 601C86 601 43 601 21.5 601L0 601Z" fill="#545252"></path><path d="M0 411L21.5 422.2C43 433.3 86 455.7 128.8 459.5C171.7 463.3 214.3 448.7 257.2 446.5C300 444.3 343 454.7 385.8 458.5C428.7 462.3 471.3 459.7 514.2 451C557 442.3 600 427.7 642.8 428.7C685.7 429.7 728.3 446.3 771.2 451.5C814 456.7 857 450.3 878.5 447.2L900 444L900 601L878.5 601C857 601 814 601 771.2 601C728.3 601 685.7 601 642.8 601C600 601 557 601 514.2 601C471.3 601 428.7 601 385.8 601C343 601 300 601 257.2 601C214.3 601 171.7 601 128.8 601C86 601 43 601 21.5 601L0 601Z" fill="#3f3e3e"></path><path d="M0 482L21.5 482C43 482 86 482 128.8 476.7C171.7 471.3 214.3 460.7 257.2 464.8C300 469 343 488 385.8 496.2C428.7 504.3 471.3 501.7 514.2 500.5C557 499.3 600 499.7 642.8 496.3C685.7 493 728.3 486 771.2 486.5C814 487 857 495 878.5 499L900 503L900 601L878.5 601C857 601 814 601 771.2 601C728.3 601 685.7 601 642.8 601C600 601 557 601 514.2 601C471.3 601 428.7 601 385.8 601C343 601 300 601 257.2 601C214.3 601 171.7 601 128.8 601C86 601 43 601 21.5 601L0 601Z" fill="#2c2b2b"></path><path d="M0 519L21.5 516C43 513 86 507 128.8 510.2C171.7 513.3 214.3 525.7 257.2 530.2C300 534.7 343 531.3 385.8 522.8C428.7 514.3 471.3 500.7 514.2 496.2C557 491.7 600 496.3 642.8 503C685.7 509.7 728.3 518.3 771.2 519.8C814 521.3 857 515.7 878.5 512.8L900 510L900 601L878.5 601C857 601 814 601 771.2 601C728.3 601 685.7 601 642.8 601C600 601 557 601 514.2 601C471.3 601 428.7 601 385.8 601C343 601 300 601 257.2 601C214.3 601 171.7 601 128.8 601C86 601 43 601 21.5 601L0 601Z" fill="#1a1919"></path><path d="M0 538L21.5 542.3C43 546.7 86 555.3 128.8 556.2C171.7 557 214.3 550 257.2 549C300 548 343 553 385.8 555.8C428.7 558.7 471.3 559.3 514.2 554C557 548.7 600 537.3 642.8 538C685.7 538.7 728.3 551.3 771.2 554.5C814 557.7 857 551.3 878.5 548.2L900 545L900 601L878.5 601C857 601 814 601 771.2 601C728.3 601 685.7 601 642.8 601C600 601 557 601 514.2 601C471.3 601 428.7 601 385.8 601C343 601 300 601 257.2 601C214.3 601 171.7 601 128.8 601C86 601 43 601 21.5 601L0 601Z" fill="#000000"></path></svg>